<?xml version="1.0" encoding="UTF-8" standalone="no"?><!DOCTYPE svg PUBLIC "-//W3C//DTD SVG 1.1//EN" "http://www.w3.org/Graphics/SVG/1.1/DTD/svg11.dtd"><svg width="100%" height="100%" viewBox="0 0 279 176" version="1.1" xmlns="http://www.w3.org/2000/svg" xmlns:xlink="http://www.w3.org/1999/xlink" xml:space="preserve" xmlns:serif="http://www.serif.com/" style="fill-rule:evenodd;clip-rule:evenodd;stroke-linejoin:round;stroke-miterlimit:2;"><g id="logo-reducido" serif:id="logo reducido"><g><path d="M278.683,41.186l0,92.883l-92.883,0l0,-92.883l92.883,0Zm-65.189,62.573l20.052,0l3.869,11.764l12.262,0l-20.845,-55.791l-10.691,0l-20.73,55.791l12.223,0l3.859,-11.764Zm10.013,-30.52l7.077,21.516l-14.136,0l7.059,-21.516Zm43.566,-13.507l-11.457,0l0,55.791l11.457,0l0,-55.791Z" style="fill:#12d27c;"/><path d="M139.359,41.186c25.632,0 46.441,20.81 46.441,46.441c0,25.632 -20.81,46.442 -46.441,46.442c-25.632,0 -46.441,-20.81 -46.441,-46.442c0,-25.632 20.81,-46.441 46.441,-46.441Zm-0,13.932c-17.942,0 -32.509,14.567 -32.509,32.509c0,17.942 14.567,32.509 32.509,32.509c17.942,0 32.509,-14.567 32.509,-32.509c0,-17.942 -14.567,-32.509 -32.509,-32.509Z" style="fill:#12d27c;"/><path d="M78.985,120.78c-8.379,8.218 -19.857,13.288 -32.509,13.288c-25.632,0 -46.441,-20.81 -46.441,-46.442c0,-25.632 20.81,-46.441 46.441,-46.441c12.652,0 24.129,5.07 32.509,13.288l0,-13.288l13.932,0l0,92.883l-13.932,0l0,-13.288Zm0,-33.153c0,-17.942 -14.567,-32.509 -32.509,-32.509c-17.942,0 -32.509,14.567 -32.509,32.509c0,17.942 14.567,32.509 32.509,32.509c17.942,0 32.509,-14.567 32.509,-32.509Z" style="fill:#163a65;"/><circle cx="139.359" cy="7.196" r="6.966" style="fill:#163a65;"/><circle cx="139.359" cy="168.058" r="6.966" style="fill:#12d27c;"/></g></g></svg>