<?xml version="1.0" encoding="UTF-8" standalone="no"?><!DOCTYPE svg PUBLIC "-//W3C//DTD SVG 1.1//EN" "http://www.w3.org/Graphics/SVG/1.1/DTD/svg11.dtd"><svg width="100%" height="100%" viewBox="0 0 280 317" version="1.1" xmlns="http://www.w3.org/2000/svg" xmlns:xlink="http://www.w3.org/1999/xlink" xml:space="preserve" xmlns:serif="http://www.serif.com/" style="fill-rule:evenodd;clip-rule:evenodd;stroke-linejoin:round;stroke-miterlimit:2;"><g id="logo-vertical" serif:id="logo vertical"><g><path d="M279.418,186.583l0,74.306l-74.306,0l0,-74.306l74.306,0Zm-52.151,50.058l16.041,0l3.095,9.411l9.809,0l-16.676,-44.633l-8.553,0l-16.584,44.633l9.779,0l3.088,-9.411Zm8.011,-24.416l5.661,17.212l-11.309,0l5.647,-17.212Zm34.853,-10.806l-9.166,0l0,44.633l9.166,0l0,-44.633Z" style="fill:#338a7b;"/><path d="M47.212,168.006c25.632,0 46.441,20.81 46.441,46.441c0,25.632 -20.81,46.442 -46.441,46.442c-25.632,0 -46.441,-20.81 -46.441,-46.442c0,-25.632 20.81,-46.441 46.441,-46.441Zm-0,13.932c-17.942,0 -32.509,14.567 -32.509,32.509c0,17.942 14.567,32.509 32.509,32.509c17.942,0 32.509,-14.567 32.509,-32.509c0,-17.942 -14.567,-32.509 -32.509,-32.509Z" style="fill:#338a7b;"/><path d="M79.721,126.846c-8.379,8.218 -19.857,13.288 -32.509,13.288c-25.632,0 -46.441,-20.81 -46.441,-46.442c0,-25.632 20.81,-46.441 46.441,-46.441c12.652,0 24.129,5.07 32.509,13.288l0,-13.288l13.932,0l0,92.883l-13.932,0l0,-13.288Zm0,-33.153c0,-17.942 -14.567,-32.509 -32.509,-32.509c-17.942,0 -32.509,14.567 -32.509,32.509c0,17.942 14.567,32.509 32.509,32.509c17.942,0 32.509,-14.567 32.509,-32.509Z" style="fill:#338a7b;"/><path d="M172.603,214.448c0,-17.942 -14.567,-32.509 -32.509,-32.509c-17.942,0 -32.509,14.567 -32.509,32.509l0,46.441l-13.932,0l0,-92.883l13.932,0l-0,13.288c8.379,-8.218 19.857,-13.288 32.509,-13.288c12.652,0 24.129,5.07 32.509,13.288c8.596,8.431 13.932,20.173 13.932,33.153l0,46.442l-13.932,0l0,-46.441Z" style="fill:#338a7b;"/><path d="M172.603,126.846c-8.379,8.218 -19.857,13.288 -32.509,13.288c-25.632,0 -46.441,-20.81 -46.441,-46.442c0,-25.632 20.81,-46.441 46.441,-46.441c12.652,0 24.129,5.07 32.509,13.288l-0,-59.729l13.932,0l0,139.324l-13.932,0l0,-13.288Zm-0,-33.153c0,-17.942 -14.567,-32.509 -32.509,-32.509c-17.942,0 -32.509,14.567 -32.509,32.509c0,17.942 14.567,32.509 32.509,32.509c17.942,0 32.509,-14.567 32.509,-32.509Z" style="fill:#338a7b;"/><path d="M265.486,126.846c-8.379,8.218 -19.857,13.288 -32.509,13.288c-25.632,0 -46.441,-20.81 -46.441,-46.442c0,-25.632 20.81,-46.441 46.441,-46.441c12.652,0 24.129,5.07 32.509,13.288l0,-59.729l13.932,0l0,139.324l-13.932,0l0,-13.288Zm0,-33.153c0,-17.942 -14.567,-32.509 -32.509,-32.509c-17.942,0 -32.509,14.567 -32.509,32.509c0,17.942 14.567,32.509 32.509,32.509c17.942,0 32.509,-14.567 32.509,-32.509Z" style="fill:#338a7b;"/><g transform="matrix(1.525855,0,0,1.525855,-554.110055,-399.233299)"><g><g transform="matrix(25,0,0,25,397.149069,468.903778)"><path d="M0.538,-0.097l0,0.097l-0.377,-0l0,-0.097l0.377,0Zm-0.343,-0.614l0,0.711l-0.123,-0l0,-0.711l0.123,0Zm0.293,0.297l0,0.096l-0.328,0l0,-0.096l0.328,0Zm0.047,-0.297l0,0.098l-0.375,0l0,-0.098l0.375,0Z" style="fill:#338a7b;fill-rule:nonzero;"/></g><g transform="matrix(25,0,0,25,411.847604,468.903778)"><path d="M0.636,-0.711l0,0.711l-0.123,-0l-0.319,-0.509l0,0.509l-0.123,-0l0,-0.711l0.123,0l0.32,0.51l0,-0.51l0.122,0Z" style="fill:#338a7b;fill-rule:nonzero;"/></g><g transform="matrix(25,0,0,25,429.805417,468.903778)"><path d="M0.365,-0.711l0,0.711l-0.122,-0l0,-0.711l0.122,0Zm0.223,0l0,0.098l-0.566,0l0,-0.098l0.566,0Z" style="fill:#338a7b;fill-rule:nonzero;"/></g><g transform="matrix(25,0,0,25,445.614792,468.903778)"><path d="M0.538,-0.097l0,0.097l-0.377,-0l0,-0.097l0.377,0Zm-0.343,-0.614l0,0.711l-0.123,-0l0,-0.711l0.123,0Zm0.293,0.297l0,0.096l-0.328,0l0,-0.096l0.328,0Zm0.047,-0.297l0,0.098l-0.375,0l0,-0.098l0.375,0Z" style="fill:#338a7b;fill-rule:nonzero;"/></g><g transform="matrix(25,0,0,25,460.313327,468.903778)"><path d="M0.072,-0.711l0.251,0c0.054,0 0.1,0.008 0.138,0.024c0.038,0.016 0.067,0.04 0.088,0.072c0.02,0.032 0.031,0.071 0.031,0.117c0,0.035 -0.007,0.067 -0.02,0.094c-0.013,0.027 -0.031,0.05 -0.055,0.068c-0.024,0.018 -0.052,0.033 -0.085,0.043l-0.037,0.018l-0.226,0l-0.001,-0.097l0.169,0c0.029,0 0.054,-0.005 0.073,-0.016c0.02,-0.01 0.034,-0.025 0.044,-0.043c0.01,-0.018 0.015,-0.038 0.015,-0.061c0,-0.025 -0.005,-0.046 -0.014,-0.065c-0.01,-0.018 -0.024,-0.033 -0.044,-0.042c-0.02,-0.01 -0.045,-0.015 -0.076,-0.015l-0.129,0l0,0.613l-0.123,-0l0,-0.711Zm0.406,0.711l-0.167,-0.319l0.128,-0l0.169,0.313l0,0.006l-0.131,-0Z" style="fill:#338a7b;fill-rule:nonzero;"/></g><g transform="matrix(25,0,0,25,476.62319,468.903778)"><path d="M0.342,-0.265l-0.185,0l0,-0.097l0.185,0c0.032,0 0.058,-0.005 0.078,-0.016c0.02,-0.01 0.034,-0.025 0.044,-0.043c0.009,-0.018 0.014,-0.039 0.014,-0.063c0,-0.022 -0.005,-0.044 -0.014,-0.063c-0.009,-0.02 -0.024,-0.036 -0.044,-0.048c-0.02,-0.012 -0.046,-0.018 -0.078,-0.018l-0.147,0l0,0.613l-0.123,-0l0,-0.711l0.27,0c0.055,0 0.102,0.01 0.14,0.029c0.039,0.019 0.068,0.046 0.088,0.08c0.02,0.034 0.03,0.073 0.03,0.116c0,0.046 -0.01,0.085 -0.03,0.118c-0.02,0.033 -0.05,0.058 -0.088,0.076c-0.039,0.018 -0.085,0.026 -0.14,0.026Z" style="fill:#338a7b;fill-rule:nonzero;"/></g><g transform="matrix(25,0,0,25,493.15278,468.903778)"><path d="M0.072,-0.711l0.251,0c0.054,0 0.1,0.008 0.138,0.024c0.038,0.016 0.067,0.04 0.088,0.072c0.02,0.032 0.031,0.071 0.031,0.117c0,0.035 -0.007,0.067 -0.02,0.094c-0.013,0.027 -0.031,0.05 -0.055,0.068c-0.024,0.018 -0.052,0.033 -0.085,0.043l-0.037,0.018l-0.226,0l-0.001,-0.097l0.169,0c0.029,0 0.054,-0.005 0.073,-0.016c0.02,-0.01 0.034,-0.025 0.044,-0.043c0.01,-0.018 0.015,-0.038 0.015,-0.061c0,-0.025 -0.005,-0.046 -0.014,-0.065c-0.01,-0.018 -0.024,-0.033 -0.044,-0.042c-0.02,-0.01 -0.045,-0.015 -0.076,-0.015l-0.129,0l0,0.613l-0.123,-0l0,-0.711Zm0.406,0.711l-0.167,-0.319l0.128,-0l0.169,0.313l0,0.006l-0.131,-0Z" style="fill:#338a7b;fill-rule:nonzero;"/></g><g transform="matrix(25,0,0,25,509.462643,468.903778)"><rect x="0.081" y="-0.711" width="0.123" height="0.711" style="fill:#338a7b;fill-rule:nonzero;"/></g><g transform="matrix(25,0,0,25,517.117721,468.903778)"><path d="M0.446,-0.183c0,-0.015 -0.002,-0.028 -0.007,-0.039c-0.004,-0.011 -0.012,-0.022 -0.023,-0.031c-0.011,-0.009 -0.027,-0.019 -0.047,-0.028c-0.02,-0.009 -0.045,-0.018 -0.076,-0.028c-0.034,-0.01 -0.065,-0.022 -0.094,-0.035c-0.028,-0.013 -0.053,-0.028 -0.074,-0.045c-0.021,-0.017 -0.038,-0.037 -0.049,-0.059c-0.012,-0.022 -0.018,-0.048 -0.018,-0.077c0,-0.029 0.006,-0.055 0.018,-0.079c0.012,-0.024 0.03,-0.044 0.052,-0.062c0.023,-0.017 0.049,-0.031 0.08,-0.041c0.031,-0.01 0.065,-0.014 0.103,-0.014c0.053,0 0.098,0.01 0.136,0.029c0.038,0.02 0.068,0.046 0.088,0.079c0.021,0.033 0.031,0.069 0.031,0.109l-0.122,0c0,-0.023 -0.005,-0.044 -0.015,-0.062c-0.01,-0.018 -0.025,-0.032 -0.045,-0.043c-0.02,-0.01 -0.045,-0.016 -0.076,-0.016c-0.029,0 -0.053,0.004 -0.072,0.013c-0.019,0.009 -0.034,0.021 -0.043,0.036c-0.009,0.015 -0.014,0.032 -0.014,0.051c0,0.013 0.003,0.025 0.009,0.036c0.006,0.011 0.016,0.021 0.028,0.03c0.013,0.009 0.029,0.018 0.048,0.026c0.019,0.008 0.042,0.016 0.068,0.023c0.039,0.012 0.074,0.025 0.103,0.039c0.029,0.014 0.054,0.03 0.073,0.048c0.02,0.018 0.034,0.038 0.044,0.061c0.01,0.023 0.015,0.048 0.015,0.077c0,0.03 -0.006,0.057 -0.018,0.081c-0.012,0.024 -0.029,0.044 -0.052,0.061c-0.022,0.017 -0.049,0.03 -0.08,0.039c-0.031,0.009 -0.066,0.013 -0.104,0.013c-0.034,0 -0.068,-0.005 -0.101,-0.014c-0.033,-0.009 -0.063,-0.023 -0.09,-0.042c-0.027,-0.019 -0.049,-0.042 -0.064,-0.07c-0.016,-0.028 -0.024,-0.061 -0.024,-0.099l0.123,0c0,0.023 0.004,0.043 0.012,0.059c0.008,0.016 0.019,0.03 0.033,0.04c0.014,0.01 0.031,0.018 0.05,0.023c0.019,0.005 0.039,0.007 0.061,0.007c0.029,0 0.053,-0.004 0.072,-0.012c0.019,-0.008 0.034,-0.02 0.044,-0.034c0.01,-0.015 0.015,-0.032 0.015,-0.051Z" style="fill:#338a7b;fill-rule:nonzero;"/></g><g transform="matrix(25,0,0,25,532.82944,468.903778)"><path d="M0.538,-0.097l0,0.097l-0.377,-0l0,-0.097l0.377,0Zm-0.343,-0.614l0,0.711l-0.123,-0l0,-0.711l0.123,0Zm0.293,0.297l0,0.096l-0.328,0l0,-0.096l0.328,0Zm0.047,-0.297l0,0.098l-0.375,0l0,-0.098l0.375,0Z" style="fill:#338a7b;fill-rule:nonzero;"/></g></g></g></g></g></svg>