<?xml version="1.0" encoding="UTF-8" standalone="no"?>
<!DOCTYPE svg PUBLIC "-//W3C//DTD SVG 1.1//EN" "http://www.w3.org/Graphics/SVG/1.1/DTD/svg11.dtd">
<svg width="100%" height="100%" viewBox="0 0 177 176" version="1.1" xmlns="http://www.w3.org/2000/svg" xmlns:xlink="http://www.w3.org/1999/xlink" xml:space="preserve" xmlns:serif="http://www.serif.com/" style="fill-rule:evenodd;clip-rule:evenodd;stroke-linejoin:round;stroke-miterlimit:2;">
    <g id="logo-reducido" serif:id="logo reducido" transform="matrix(1,0,0,1,-51,0)">
        <g transform="matrix(1,0,0,1,-9.641,0)">
            <circle cx="149" cy="88" r="88" style="fill:rgb(18,210,124);"/>
        </g>
        <g transform="matrix(1,0,0,1,88.883,0.0005)">
            <path d="M78.985,120.78C70.606,128.998 59.128,134.068 46.476,134.068C20.844,134.068 0.035,113.258 0.035,87.626C0.035,61.994 20.845,41.185 46.476,41.185C59.128,41.185 70.605,46.255 78.985,54.473L78.985,41.185L92.917,41.185L92.917,134.068L78.985,134.068L78.985,120.78ZM78.985,87.627C78.985,69.685 64.418,55.118 46.476,55.118C28.534,55.118 13.967,69.685 13.967,87.627C13.967,105.569 28.534,120.136 46.476,120.136C64.418,120.136 78.985,105.569 78.985,87.627Z" style="fill:white;"/>
        </g>
        <g transform="matrix(1,0,0,1,0,14)">
            <circle cx="139.359" cy="7.196" r="6.966" style="fill:white;"/>
        </g>
        <g transform="matrix(1,0,0,1,0,-13)">
            <circle cx="139.359" cy="168.058" r="6.966" style="fill:white;"/>
        </g>
    </g>
</svg>
